<svg width="28" height="28" viewBox="0 0 28 28" fill="none" xmlns="http://www.w3.org/2000/svg">
<g clip-path="url(#clip0_16_950)">
<path d="M28 14.0852C28 21.0723 22.8737 26.8648 16.1817 27.916V18.1592H19.4355L20.055 14.1225H16.1817V11.5033C16.1817 10.3985 16.723 9.32283 18.4567 9.32283H20.2172V5.88583C20.2172 5.88583 18.6188 5.61283 17.0917 5.61283C13.902 5.61283 11.8183 7.546 11.8183 11.0448V14.1213H8.27283V18.158H11.8183V27.9148C5.1275 26.8625 0 21.0712 0 14.0852C0 6.35367 6.2685 0.0851669 14 0.0851669C21.7315 0.0851669 28 6.3525 28 14.0852Z" fill="#5C6AC4"/>
</g>
<defs>
<clipPath id="clip0_16_950">
<rect width="28" height="28" fill="white"/>
</clipPath>
</defs>
</svg>
