<svg width="28" height="28" viewBox="0 0 28 28" fill="none" xmlns="http://www.w3.org/2000/svg">
<g clip-path="url(#clip0_16_946)">
<path d="M24.0917 21.2007H23.8887V20.7888H24.1453C24.2783 20.7888 24.43 20.8098 24.43 20.9837C24.43 21.1832 24.2772 21.1995 24.0917 21.1995V21.2007Z" fill="#5C6AC4"/>
<path d="M24.0788 20.2603C23.527 20.2697 23.0872 20.7247 23.0953 21.2765C23.1047 21.8283 23.5597 22.2693 24.1115 22.26H24.1372C24.6773 22.2483 25.1055 21.8015 25.095 21.2613V21.245C25.0857 20.6932 24.6307 20.2522 24.0788 20.2615V20.2603ZM24.4405 21.868L24.108 21.3442L24.1033 21.3383H23.8887V21.868H23.7148V20.6512H24.1792C24.4662 20.6512 24.6073 20.762 24.6073 20.9942C24.6073 21.0012 24.6073 21.0082 24.6073 21.0152C24.6062 21.1867 24.4965 21.3255 24.2702 21.3255L24.6295 21.868H24.4428H24.4405Z" fill="#5C6AC4"/>
<path d="M14 0C6.2685 0 0 6.2685 0 14C0 21.7315 6.2685 28 14 28C21.7315 28 28 21.7315 28 14C28 6.2685 21.7315 0 14 0ZM22.2098 21.0653C22.2005 21.7397 21.6463 22.281 20.9708 22.2717H6.72C6.04683 22.2787 5.49383 21.7385 5.48567 21.0653V6.755C5.49383 6.08183 6.04567 5.54167 6.72 5.54983H20.9708C21.6452 5.53933 22.1993 6.0795 22.2098 6.75383V21.0653ZM24.1348 22.3907C23.5048 22.3965 22.9892 21.8913 22.9833 21.2613C22.9775 20.6325 23.4827 20.1168 24.1127 20.1098H24.1348C24.7555 20.1157 25.2583 20.6185 25.2642 21.2392C25.27 21.868 24.7648 22.3837 24.1348 22.3907ZM16.7615 11.62C15.8013 11.585 14.8995 12.0797 14.4142 12.9092H14.3815V11.8183H12.0027V19.7983H14.4807V15.8515C14.4807 14.8097 14.6778 13.8028 15.9693 13.8028C17.241 13.8028 17.2573 14.994 17.2573 15.9192V19.7995H19.7353V15.4222C19.7353 13.272 19.2733 11.6212 16.7615 11.6212V11.62ZM7.96483 19.7983H10.4452V11.8183H7.96483V19.7983ZM9.20617 7.85167C8.41167 7.85167 7.76767 8.49567 7.76767 9.29017C7.76767 10.0847 8.41167 10.7275 9.20617 10.7275C10.0007 10.7275 10.6447 10.0835 10.6447 9.289C10.6447 8.4945 10.0007 7.8505 9.20617 7.85167Z" fill="#5C6AC4"/>
</g>
<defs>
<clipPath id="clip0_16_946">
<rect width="28" height="28" fill="white"/>
</clipPath>
</defs>
</svg>
